<?xml version="1.0" encoding="UTF-8"?>
<svg version="1.1" viewBox="0 0 1600 1079" width="1280" height="1280" xmlns="http://www.w3.org/2000/svg">
<path transform="translate(0)" d="m0 0h1600v1079h-1600z" fill="#E1D9CC"/>
<path transform="translate(1459)" d="m0 0h141v382l-5-2-5-5-6-5-7-8-12-11-10-9v-2l-4-2-12-9-21 1-13 1h-11l-16-12-4-4v-3l48 1-4-6-5-4v-2l-4-2-9-10-10-10-13-10-24-13-5-4-19-9-15-9-18-10-10-4v-2l-5-1-5-5-9-5-14-9-16-8-3-1h-25l-7 1h-39l-54-2-12-4-6-1v2h-3v-2h-17l-9-2-8-2-28-2-10-2-43-5-5-1v-2h-10l-11-3-1-1v-42l-4-4-7-4-3-3-2-1v-2h-3l-5-5-13-10-11-9-11-8-6-5-10-2-16-2-21-3-19-1-4-3 1-4 17 2 26 2 25 5 3 1v-2l5 2v2l4 1v2l5 2 14 9 7 4 18-2 19 1v-2h2v-2l2-1 25-1h103l21-3 29-6 21-5 11-3 42-9 45-15 41-14 44-15 14-6z" fill="#E1D9CC"/>
<path transform="translate(299,14)" d="m0 0h15l1 4 7-1-2 1-1 3h-3l-1 3-10 2-7 1v2h7v1h-17l-9 3-2 2v4l-3 1-14 2v2h-2l-1 2-8 3-13 6 3 1 23 1h41v-7l6-8 10-10 5 1 7 3h3l2-4 3 7 3 1 1 3 2 1 1 3 2 1v3l5 1 4 4v5h3l3-2h6l1 4-2 7 4 4 5-2 4 1-1 4-1 1v5l6 4-1 6h-2v3h-4v3l7-1 2 1v2l2-1h7l1 1h9l3 4-2 3-6 2-2 2 9-1v3l-1 4 6 2v1l-10 2 4 1 1 4-1 2-6 1-2 3-3 2-10 1h-10v2l8-1v2l4 1h-10l-13-1h-1v2h-7l-1 1h7v2l6 1-1 2-6 1h-5l-1 4h3v-2l6 1-1 3 9 2 1 2 6 2v2l-5-1 6 12 1 7-2 4h-2l-2 5-2 3-7 4-3 6-3 5-1 9h-2v2l-4 3-1 5-2 2h-4v2l-3 2-3 6-1 9-2 2-7-1-3-1-1 5-2-2-7 4-5 2h6l-1 2-4 1-2 5-6 3h-9l-2 3h-7l-2 5-3 2h-10l-4 5-8 4-7 2-2-1 3 6v3l-7 4h-6l-4-1v2 6h-3l-1 3h-7l-4 2h-4l-2 4-9 3-9 1-6 1-22 8-7 5-8 3-1 3h2l1 4-8 2v2l-9 3v2l4 1v1h-5v2l-7-1-17-1v-1h-9-2-8l-7 1-90-1v-340l20 1 20 2 68 3 3 2h-17l1 1h5l-4 2-12 4-20 4-23 5-2 2 18 3v1h-7v2l9 2 3-1v-2l-4-1 8-1 5 2v3h6l-4 3 3 2 2 4h7l5 1 8-1 2 4 57-3h25l3 2v2l4-1 2 1v2h-2v2l-2 1-1 4 9-2 8-6 23-10 30-15v-2l-5-4v-2l-11 1 1-4-7 1-3 1v-2l-2-1 1-5 7-2 30-4z" fill="#FDEFD4"/>
<path transform="translate(1517,538)" d="m0 0 5 1 10 7 19 12 12 9 10 9 8 7 14 12 5 3v284l-11 6-10 10-9 11-4 5-1 4-15-1-10-1 2-5 10-16-11-1-26-6-52-9-42-7-9-2-1-1-3-20-1-10v-23l3-10 1-2-2-1 6-9 9-11 12-14 9-11 11-13 9-11 12-13 7-8 9-11 7-10 3-10v-12l-4-19-3-8v-3l16-4 16-6 1-1v-10l-4-4-9-7-18-13-27-18-14-8-1-2 14-7 9-3v-2l-9-2-5-2-1-3 6-2 21-4 15-2z" fill="#B8C894"/>
<path transform="translate(906,245)" d="m0 0 12 1 43 9 23 5 4 3-1 8-8 7-16 12-18 13-14 11-18 13-11 8-5 4 18 5 177 44 53 14 39 10 21 7 24 15 20 14 15 9 13 8v2l5 2 8 6 1 6-2 4-9 4-31 9-23 7-39 10-5 1 5 5 10 8 13 10 18 13 14 10 11 9 18 13 14 10 12 10 15 10 2 2 5-1 9-1 3 4-9-21-4-13v-20l4-12 5-10 9-10 7-8 13-9 14-6 10-3 7-1h16l9 2 12 6 8 7 9 11 6 10 3 12-1 13-3 10-8 15-7 9-12 14-12 13-10 12-7 10-8 13 1 1 6 2 3 5v2l9 3 9 5 5 6v9l-4 3h-3v2h-10l-9 2-6 3h-5l-16-12-6-4-2 1 9 8 11 9 1 4-8-1-7-4-12-3-1-3-5 1-6-2 1 13v12h-2l-4-27-4-5 18-9 2 1-10-10-13-10-10-8-7-5-3 1 5 4v2l-10-1h-12l3-2 7-3-7 1v-2l-12 1-17-9-1-3-4-2-18-15-5-5-2-4 4-3h-13l-3-2-5-5-4-5-4-4v-4l-9-2-12-8v-2h-2l-2-3 1-4-10-2-5-3v-2l-6-2-2-1-4-10-9-2-11-12-2-4 2-3-1-1-8-1 2-4 5-3 1-2 7 1-5-5-6-7v-5l6-5 53-11 43-12 10-3-5-4-11-7-12-8-10-7-12-8-56-15-67-18-92-23-7-1-9-3-39-10-53-14-10-5-1-1v-7l3-4 7-4 19-14 14-10 19-14 18-13 10-8h2v-3l-9-1-31-6-7-3v-11l2-5z" fill="#6A9674"/>
<path transform="translate(18,405)" d="m0 0h7l23 12 17 8 7 2 15 10 10 9 3 12 5 16 3 9 2 4-1 5 8 18 7 6 11 4 2 2 7 1h24l28 5 12 5 11 6v2l9 3 19 9 1 3-8 19-7 12-8 10-11 13-14 15-5 5-11 3-7 1h-17l-28-9-5-2 5-4 18-14 11-8 13-9 17-11 6-2 1-2-22-2h-36l-19 3-26 6-14 3-30 3-17 1h-34v-175l12-5z" fill="#C8D795"/>
<path transform="translate(906,245)" d="m0 0 12 1 43 9 23 5 4 3-1 8-8 7-16 12-18 13-14 11-18 13-11 8-5 4 18 5 177 44 53 14 39 10 21 7 24 15 20 14 15 9 13 8v2l5 2 8 6 1 6-2 4-9 4-31 9-23 7-39 10-5 1 5 5 10 8 13 10 18 13 14 10 11 9 18 13 14 10 12 10 15 10 7 8-1 7-6 9-4 3h-9l-10-7-9-7-13-10-16-13-13-10-15-11-16-12-16-13-17-13-36-28-6-5-2-3v-5l6-5 53-11 43-12 10-3-5-4-11-7-12-8-10-7-12-8-56-15-67-18-92-23-7-1-9-3-39-10-53-14-10-5-1-1v-7l3-4 7-4 19-14 14-10 19-14 18-13 10-8h2v-3l-9-1-31-6-7-3v-11l2-5z" fill="#154995"/>
<path transform="translate(1122)" d="m0 0h337l-1 2-15 6-40 14-45 15-41 14-14 4-25 5-17 4-11 3-27 6-19 4-17 2h-103l-27 1v2l-4-1-4-9-1-6v-9l8-4 18-5 54-8 12-2v-2h3l2-4 5-5v-3l-1-2-4-1-5-3-4-1-3-5v-4l-7-3-4-3z" fill="#E1D9CC"/>
<path transform="translate(853)" d="m0 0h269l5 5 7 2-1 4 3 3v3l5 1 10 5 1 3-5 4-4 6h-3v2l-17 4-49 7-21 6-5 2 2 15 5 10v2h-19l-19 2-20-13-5-3v-2l-4-1-3-3-2-1v2l-11-2-17-3-38-3-8-2-15-7-16-8-9-5-10-4-3-8-3-16z" fill="#E1D9CC"/>
<path transform="translate(868,140)" d="m0 0h17l11 4 10 8 6 10 3 7 1 13-4 16-8 16-9 14-4 8-2 6 1 5 7 1 2 4h4l1 10 6 2 31 6 9 2v3l-13 10-14 10-18 13-12 9-16 11-5-2-8-7 6-12 1-5 7-5 7-2 14-2 6-3-13 3h-7l5-5 2-3-11 6-13 8-4 2-8-1-1-5v-9l4-6h2v-6l7-2 19-2h-13l-18 1-5-5-6-5-4-2-4-1-1-6 6-5 11-2 3-2h3v-3l-14 1h-19l-1-8h-30l-21-1-1-4 6-9v-8l-7-3-5-7 3-3 7-1 2-5 9-3 25-5 21-4 2-3 3-12 5-9 9-10 8-4z" fill="#B5BBA0"/>
<path transform="translate(0)" d="m0 0h403v1l-51 8-38 5-47 3-30 4-6 2-1 4 1 3 3-2h7l-1 4 8-2 3 1 5 5 2 3-32 16-13 6-10 4-10 7h-7l1-5h2v-2h2v-2h-6v-2l-3-1h-25l-37 2h-20l-3-3-11 1-2-1h-7l-2-5-3-2 2-2-3-1-1-3-6-1-2 1v2l-3 2-6-1-3-2v-2l3-1-15-2 3-4 23-5 20-4 11-4-2-2 1-1h14l-68-3-40-4z" fill="#DADBB2"/>
<path transform="translate(1540,934)" d="m0 0 18 1v17l6 11 13 13 7 8 14 12 2 2v81h-133l2-6 12-18 11-16 13-18 12-17 8-11 8-10 9-9-1-6-4-14v-12z" fill="#E2DACD"/>
<path transform="translate(1133,512)" d="m0 0 7 6 2 4-6-1-2-1-1 3-6 4-1 2h8l2 2-2 4 9 10 5 5 7 1 4 7v4l6 2 2 1v2l5 2 11 2-1 5 1 3h2v2l4 2 10 6 7 1 2 6v2l4 2 5 6 5 4h13l1 2-5 2 4 5 3 2v2l4 2v2l5 2 11 10 4 4 16 8h12l1 1 7-1-3 3-5 2h11l8 2-5-5-1-2 4-1 11 8 2 5 8 7 11 8 3 3-6 4-20 7-18 6-2 2-17 6-11 5-12 2-1 3 5 1-3 2v15l-2 5-6 3h-9l-42-5-4-8-1-13-3-6-1-9-2-7-1-8-2-7h-2l-2-7 1-1 16-1 30-1 18-2 18-6 8-3 7-1 1-2 3-1-7 1h-8l-7-4-11-9-14-12-11-9-3-2v-2l9-4-10 1-5 1h-7l-4-5-7-4-3-3-6-4v-2l8-3v-1l-14-1-5-5-1-3-4-2-5-3v-4l7-2-17-1-5-4-4-5v-2h-2l-1-5 2-2-1-1-9-1-9-7-5-5-3-2 2-4 9-2v-2l-13 1-3-2 5-3h3l2-7 5-5h3z" fill="#D8C7A7"/>
<path transform="translate(857,343)" d="m0 0h1l2 7 9 4 57 15 43 11 1 1 15 3 64 16 43 11 100 27 15 10 10 7 18 12 8 5-1 2-42 12-9-2-6-4-1-5-1-3-3-1-2-3-7-3-4-6-7-2 1-7-8 4-5-2-9-2-13-2-10-3-7-2v-3-2l-8 1-5-3h-14l-4 2-1-14-6-2-5-1-9 4h-8l-5-3-11-2-5-3-1-2-5 2-22-7-11-2-15-3-13-3-15-5-3-3v-3l-7 1-18-4h-9l-4-1-10-3-9-3h-11l-9-3-3-2 2-5 3-4-4-4-12-6-1-4 5-5z" fill="#B8BCA1"/>
<path transform="translate(912,55)" d="m0 0 17 2 26 2 25 5 3 1v-2l5 2v2l4 1v2l5 2 14 9 7 4 18-2h8l5 3v2l-26 1 4 5 14 11 13 10 6 9v2h9l2 2-11-1 1 18v14l25 5 11 2 14 1 17 3 2 1 29 2 16 3 11 2h3v-2l10 2 8 2 30 2h31l-16-9-14-8-7-3 3-1 18 5 11 4 4 3 6 1v2l10 2 12 5h41l11 1 24 16 11 6 10 6 7 2 1 3h4v2h3l5 5 14 6 10 6 16 8 13 7v2l7 2 4 3 11 6 10 7 8 7 15 14 16 14 5 5 13 12 17 16 8 8v2l4 2 7 6 5 6 5 3v16l-5-2-5-5-6-5-7-8-12-11-10-9v-2l-4-2-12-9-21 1-13 1h-11l-16-12-4-4v-3l48 1-4-6-5-4v-2l-4-2-9-10-10-10-13-10-24-13-5-4-19-9-15-9-18-10-10-4v-2l-5-1-5-5-9-5-14-9-16-8-3-1h-25l-7 1h-39l-54-2-12-4-6-1v2h-3v-2h-17l-9-2-8-2-28-2-10-2-43-5-5-1v-2h-10l-11-3-1-1v-42l-4-4-7-4-3-3-2-1v-2h-3l-5-5-13-10-11-9-11-8-6-5-10-2-16-2-21-3-19-1-4-3z" fill="#E8D08E"/>
<path transform="translate(1141,519)" d="m0 0 9 6 12 10 20 15 16 13 10 8 16 12 14 10 13 10 13 11 26 20 9 6h9l5-4 5-9-1-7-2-3 7-3h6l3 5v2h2l5 13 6 31 4 13 9 2 8-1 8-7 7-9 8 1 4 6v2l9 3 9 5 5 6v9l-4 3h-3v2h-10l-9 2-6 3h-5l-16-12-6-4-2 1 9 8 11 9 1 4-8-1-7-4-12-3-1-3-5 1-6-2 1 13v12h-2l-4-27-4-5 18-9 2 1-10-10-13-10-10-8-7-5-3 1 5 4v2l-10-1h-12l3-2 7-3-7 1v-2l-12 1-17-9-1-3-4-2-18-15-5-5-2-4 4-3h-13l-3-2-5-5-4-5-4-4v-4l-9-2-12-8v-2h-2l-2-3 1-4-10-2-5-3v-2l-6-2-2-1-4-10-9-2-11-12-2-4 2-3-1-1-8-1 2-4 5-3 1-2 7 1z" fill="#959CA5"/>
<path transform="translate(868,140)" d="m0 0h17l11 4 10 8 6 10 3 7 1 13-4 16-8 16-9 14-4 8-6 17-5 9-6 2-7-3-4-7-5-18-11-23-7-14-4-14v-8l3-12 5-9 9-10 8-4z" fill="#765C6B"/>
<path transform="translate(1180,94)" d="m0 0h23l26 2 19 3 11 4 30 9 11 6 10 9 2 3-1 7-4 9-5 6h-14l-18-2-25-5-30-3-32-7-15-4v-1l6-1-1-2-28-5-9-4 2-2 3-1 29-1 5-3 3-4 1-4v-8z" fill="#B8C894"/>
<path transform="translate(0)" d="m0 0h370l-2 2-30 6-23 3-21 2-31 2-46 5-11 1h-59l-37-2-48-2-57-4-5-1z" fill="#E2DACD"/>
<path transform="translate(1351,255)" d="m0 0h18l8 16 8 10 9 10 14 11 11 8 10 9 9 9 7 11 2 5v19l-12 20-2 7v13l5 19 9 20 8 17 10 19 7 11 9 11 10 10 5 6 11 9 6 5-3 2h-16l-6-4-10-8-12-11-13-14-10-15-8-16-13-29-9-26-1-5v-15l4-12 11-21 1-8-3-10-5-9-9-10-15-12-9-7-16-15-9-10-9-14z" fill="#99B6B6"/>
<path transform="translate(1134,372)" d="m0 0 12 2 25 6 27 7 18 4v4l-3 5 2 1 16 1h10l13 2 5 1 3-5 3-4 5 1 9 11 2 4h2l5 5-1 7-5 5-11 4-9 2-17-2h-9l-5-2v2l-4 1-22-14-21-7-73-19 4-2 7-8z" fill="#B7C795"/>
<path transform="translate(873,356)" d="m0 0 7 1 46 12 43 11 1 1 15 3 64 16 43 11 100 27 15 10 10 7 18 12 8 5-1 2-11 3-4-1v-2l-5-1-5-4-7-3-9-5v-2l-4-2-12-5-13-7-13-2-21-7-13-4-11-2-11-4-4-1v-2l-9-1-7-4-10-1-4-3-12-2-2-1v3l-6-2 1-2 1-1-7-1v2l-7-2-3-1-14-2-14-3-7-3-3-1-11-1-20-6-14-5v-3l6 1 20 6-1-2-20-6-6 1-3 3h-4l-1-2-4-2-7-1-10-4-19-5-12-3-11-2-5-5z" fill="#6B9373"/>
<path transform="translate(614,764)" d="m0 0 14 1 21 4v2h2v3l2 1v7l4-4 4-7h3l1 6 1 15-7 19-4 8-5 3-4 4-4 3-12-2-31-5-6-3v-6l-3 1-1 5h-4l-1-3 1-1v-10h-2v-14l-1-12h2l2 11h2l8-6 3-5 6-3 5-2 13 1-1-4-8-6z" fill="#D8C7A7"/>
<path transform="translate(979,277)" d="m0 0 1 4 9-3 3 3 5 1-1 4-3 5 7-1v6l-4 4h-2l-1 3-9 4-2 5h-3l-1 2-6 4-1 2h-2l-2 4-7 5h-3l-1 3-5 2-1 3-13-2v2l14 3 32 9 26 6 3 2v2l6 2-1 5-10 2-64-16-47-12 4-5 9-6 16-12 11-8 10-8 14-10 12-9z" fill="#939BA3"/>
<path transform="translate(1291,477)" d="m0 0 3 2-2 3 14-1-3 2-5 1-1 5-4 9-2 5h-7v7l2 2v3h2l1 6h-7l-5 3h-2v2l-6 3-9 4-11 4-3 1-1 7-8 5-9-1 2 4-5-2-28-21-10-8-6-5 1-2 25-6 40-11 29-9 11-4h2z" fill="#949BA4"/>
<path transform="translate(1540,934)" d="m0 0 18 1v17l3 5v2h-2l1 21-6 12-14 21-10 13-11 15-10 15-13 21-1 2h-28l2-6 12-18 11-16 13-18 12-17 8-11 8-10 9-9-1-6-4-14v-12z" fill="#99B6B6"/>
<path transform="translate(833,180)" d="m0 0h3l5 19 8 16 10 21 1 5h-34l-1-8h-30l-21-1-1-4 6-9v-8l-7-3-5-7 3-3 7-1 2-5 9-3 25-5z" fill="#B8C994"/>
<path transform="translate(1133,512)" d="m0 0 7 6 2 4-6-1-2-1-1 3-6 4-1 2h8l2 2-2 4 9 10 5 5 7 1 4 7v4l6 2 2 1v2l5 2 11 2-1 5 1 3h2v2l4 2 10 6 7 1 2 6v2l4 2 5 6 5 4h13l1 2-5 2 4 5 3 2v2l4 2v2l5 2 11 10 4 4 16 8h12l1 1 7-1-3 3-5 2h11l8 2-5-5-1-2 4-1 11 8 2 5 8 7 11 8 3 3-6 4-11 4-6-1-9 1-12-3-6-3-1-2-5-1-11-7v-2h-2l-4-6 2-5 7-3 1-2 3-1-7 1h-8l-7-4-11-9-14-12-11-9-3-2v-2l9-4-10 1-5 1h-7l-4-5-7-4-3-3-6-4v-2l8-3v-1l-14-1-5-5-1-3-4-2-5-3v-4l7-2-17-1-5-4-4-5v-2h-2l-1-5 2-2-1-1-9-1-9-7-5-5-3-2 2-4 9-2v-2l-13 1-3-2 5-3h3l2-7 5-5h3z" fill="#B7BDA1"/>
<path transform="translate(1408,347)" d="m0 0 5 2 1 4-7 11-7 15-1 3v12l3 9 2 9 3 4 3 10 3 8 1 7 1 5-1 2-25 5-12-6-2-4 7-8 5-3 11 1-1-5-5-9-6-9-7-10h-12l-7-4-1-2v-23l9-11 4-5 9 1v3l3-1 2-6h8l10 3 2-6z" fill="#B8C894"/>
<path transform="translate(698,391)" d="m0 0 12 1 21 2v1l-8 1-4 1v2l-2 1 1 6-4 8 2 5 2 9h-3l-1 7-5 5-4 5h-3l-1 2h-2l-1 5-5-1-2-1-2 1-2 4-4 4-2 5h-2l-1 5h-2l-3 11-1 5 4 4-5 1 1 2 9-2 5 1v1l-7 2-2 7-10 9-7 4-10-2-1-5 8-17 6-12 11-25 12-36 6-20 5-2z" fill="#E1D2BB"/>
<path transform="translate(1459)" d="m0 0h17l-4 4-29 11-20 7-44 15-47 17-17 5-37 8-9 2-31 6-11 3-20 3-6 2-92 1h-48l-4-2v-2l2-1 25-1h103l21-3 29-6 21-5 11-3 42-9 45-15 41-14 44-15 14-6z" fill="#E7D08F"/>
<path transform="translate(1058,457)" d="m0 0 16 3 22 6 7 2v2h-2v3l9 3 8 3 1 3 5 3-1 4-9 10-7 9-2-2-18-5-5-2h-6l-2 1-14-2-3-2v-4l7-1v-2l-7-2-11-2-5-3v-4h-2l-1-3 7-8 9-9z" fill="#B8C894"/>
<path transform="translate(859,350)" d="m0 0 14 5 2 7 4 3v2l15 2 16 4 11 3 9 3 1 2h7l5 3v2l5-2 5-3 10 2 13 4 1 3-11-2-15-5v3l6 1 17 6 16 4h11l2 3 2-1 2 2 20 4 9 1 8 4v-2l3-1v2h4l-1 2 1 1 4 2v-3l14 2 4 3 10 1 7 4 9 2v2l3-1 8 4 7 2 16 3 5 2 21 7 13 2 17 9 9 4 3 2v2l4 1 9 5 7 4 2 2 8 3-3 2-14 4-3-1v-2l-6-2v-3h-2l-1-4h-2l-3-3-11-6-7-4-8-2v-2l-4-1v-2h-2l-1-2h-6l-5-2-37-9-8-4-10-2v-2l-12-1-2-1v-2l-4-1v-2l-9-3-4-2v2l-6 1-6-1-13-3-8-3v-3l-5 2-36-10-32-8h-4v-2l-10-1-1-3-2 1-10-1-22-6-15-4-6-2-11-2-6-4-5-5-10-9-1-5z" fill="#959CA5"/>
<path transform="translate(0)" d="m0 0h40l3 3 14 2 2-1v3l-13 1-4 1 2 1 1 3 11 1 7-2h11l-10-2 2-2-2-2 21 1 5-1h21l12 1v2h11l9 1 7-2 5 2v2l9-3 10 1 6 1 5 1-3 3 1 3h8l14-3h7l7 1 13-1 42-5h19l19-1 30-4 16-3 4 1-24 5-23 3-21 2-31 2-46 5-11 1h-59l-37-2-48-2-57-4-5-1z" fill="#FDEFD4"/>
<path transform="translate(1265,396)" d="m0 0 5 1 9 11 2 4h2l5 5-1 7-5 5-11 4-9 2-17-2h-9l-5-2v2l-4 1-22-14-5-2 1-6 2-1 1-5 3-5 6-3 1 3 25 1 15 2 5 1 3-5z" fill="#D8C7A7"/>
<path transform="translate(1143,521)" d="m0 0 7 4 12 10 20 15 16 13 10 8 16 12 14 10 13 10 13 11 26 20 9 6h7l2 2-4 3-9-1 1 3-1 1-8-1-9-6-4-2v-2l-5-1v-2l-5-2-4-3v-2l-4-1-6-8-5-5v-2l-2-1 3-4-4 1h-8l-3-2v-2l-4-2-11-9-1-3-10-4-11-9-3-3 1-5-9-1-12-8-1-3-4-2-13-11-10-10 2-4h2v-2l-10-2v-2h6z" fill="#6A9373"/>
<path transform="translate(1599,829)" d="m0 0h1v53l-11 6-10 10-9 11-4 5-1 4-15-1-10-1 2-5 10-16 20-30 13-20h2l2-5 9-10z" fill="#99B6B6"/>
<path transform="translate(683,61)" d="m0 0h13l7 2 5 10 4 9 8 9 9 4 1 10-16-1-25-3-29-3-1-3 6-2 1-2-2-1 3-1v-2l-9-3-2-2 7-8 12-10z" fill="#B8C994"/>
<path transform="translate(165,487)" d="m0 0 4 2 5 3v-2l3 1 1 3h12l-1 9 5 4 1 3 5-1 8 1v-2l-6-1-4-2 1-10 1-1 12 1 20 4 2 2-12-2v6l10 5v5l-2 3 9 2 4 2-1 6-3 4-10 1v-2l-4 1-5-1-9-1-6-2-6 2-20-4-11-2 1-5 2-1v-12h3l-1-2-3-2 6-1-2-4-11-5 1-4z" fill="#E0D2BA"/>
<path transform="translate(868,272)" d="m0 0h9l7 3 3 4v2h2v2l9-3 7-1-1 3-2 1 1 4 13-2-2 3-7 4-1 7 6 2-1 3-17 12-15 11-3 1-5-3-7-6 6-12 1-5 7-5 7-2 14-2 6-3-13 3h-7l5-5 2-3-11 6-13 8-4 2-8-1-1-5v-9l4-6h2v-6z" fill="#C8BDAB"/>
<path transform="translate(987,987)" d="m0 0h21l16 3 8 5 4 5 1 2-1 9-6 5-5 2-6 1h-15l-14-2-10-5-5-6v-10l3-5z" fill="#9AB7B7"/>
<path transform="translate(1517,538)" d="m0 0 5 1 10 7 19 12 12 9 10 9 8 7 14 12 5 3v18l-4-2-14-11-11-10-10-8-16-11-18-13-14-10-7-6-5-4z" fill="#99B6B6"/>
<path transform="translate(736)" d="m0 0 15 2 21 7 21 6 16 5 31 10 6 1-4-17-3-8 2-6h12l4 23 2 8 4 1 9 4 16 8 17 8 4 2-1 5-5-1-27-12-9-6-3-1-11-1-6-3v-2h-5l-3 4h-10l-10-2h-3l1-4-9-4-29-10-17-5-14-4-14-3-2-1v-2z" fill="#E8D08E"/>
<path transform="translate(299,14)" d="m0 0h15l1 4 7-1-2 1-1 3h-3l-1 3-10 2-7 1v2h7v1h-17l-9 3-2 2v4l-3 1-14 2v2h-2l-1 2-8 3-11 5-8 1v-3l19-9 8-5-6-5v-2l-11 1 1-4-7 1-3 1v-2l-2-1 1-5 7-2 30-4z" fill="#FDEFD4"/>
<path transform="translate(1133,512)" d="m0 0 7 6 2 4-6-1-2-1-1 3-6 4-1 2h8l2 2-2 4 9 10 5 5 7 1 4 7v4l6 2 2 1v2l5 2 11 2-1 5 1 3h2v2l4 2 10 6 7 1 2 6v2l4 2 5 6 5 4 6 1-4 2-9 2h-7l-4-5-7-4-3-3-6-4v-2l8-3v-1l-14-1-5-5-1-3-4-2-5-3v-4l7-2-17-1-5-4-4-5v-2h-2l-1-5 2-2-1-1-9-1-9-7-5-5-3-2 2-4 9-2v-2l-13 1-3-2 5-3h3l2-7 5-5h3z" fill="#B7BDA1"/>
<path transform="translate(130,481)" d="m0 0h16l21 5-3 3v3l10 4 2 2v3l-3 2 1 3h-3l1 7v5l-1 3-4 2-4-1-10-1-6-2v-1l12-2h-26v-1l12-1-2-9 1-4-2-1-21-1-4-1-3-10 1-4z" fill="#FDEFD4"/>
<path transform="translate(1338,91)" d="m0 0 6 1 40 12 24 8-3 3-22 6-3 1h-7l-15-6-15-4-17-6-15-6-2-3z" fill="#B8C994"/>
<path transform="translate(288,29)" d="m0 0 31 2-2 4-10 10-3 5-1 7-16 1h-25l-23-1-4-2 15-8 7-2 3-1v-2l6-2 10-1 2-3-2-1 5-4z" fill="#C9D797"/>
<path transform="translate(370)" d="m0 0h33v1l-51 8-38 5-47 3-30 4-9 2-20 2h-51l-34-1-15-2-68-3-40-4v-3l81 5 29 1 37 2h59l70-7 27-2 28-3 28-5z" fill="#E7D08D"/>
<path transform="translate(1380,663)" d="m0 0 8 1 4 6v2l9 3 9 5 5 6v9l-4 3h-3v2h-10l-9 2-6 3h-5l-16-12-6-4 4-4 14 1 4-4v-6l-5-2 2-4z" fill="#B7BCA1"/>
<path transform="translate(1266,492)" d="m0 0 4 1-1 1 1 10h-2l-1 4-4 2-20 5-12 4-12 3-10 3v2l-5 2-7 1-10-8-6-5 1-2 25-6 40-11z" fill="#765C6B"/>
<path transform="translate(37,357)" d="m0 0h19l30 1h17l13 1-1 6-8 4-38 1-18 1h-16l-26-2v1h-6l-3-3v-8z" fill="#FEF0D5"/>
<path transform="translate(228,22)" d="m0 0 3 1-1 4 1 3 3-2h7l-1 4 8-2 3 1 5 5 2 3-32 16-13 6-10 4-10 7h-7l1-5 7-3 4-2 2-4 3-3v-2l-8 3h-3l11-10 6-5 5-5 8-7 5-3z" fill="#DADBB2"/>
<path transform="translate(908,512)" d="m0 0h8l31 9 6 2-3 5-3 1v2h-2v2h-2l-2 4-14 3h-20l-11-4-2-2 1-7 2-4 4-2v-4l7-2z" fill="#D9C8A7"/>
<path transform="translate(1300,481)" d="m0 0h6l-3 2-5 1-1 5-4 9-2 5h-7v7l2 2v3h2l1 6h-7l-5 3h-2v2l-6 3-9 4-11 4-3 1-1 7-8 5-9-1 2 4-5-2-11-8v-2l11-2 4-4h2l1-3h2l1-3 9-2v-2l13-3 10-2 4-4h2v-2h6l-1-8 1-4 2-1h7v-3l-3-1 2-6 2-5 6-2v-2z" fill="#B6BCA1"/>
<path transform="translate(937,337)" d="m0 0 14 3 32 9 26 6 3 2v2l6 2-1 5-10 2-76-19-3-3 6-2 1-5z" fill="#C8BEAD"/>
<path transform="translate(700,940)" d="m0 0h9l19 7 8 4 3 3v7l-6 7-5 2h-10l-15-6-10-6-3-4 1-8 5-4z" fill="#99B6B6"/>
<path transform="translate(952,566)" d="m0 0 18 3 13 5-1 5-8 15-2 2-19-1-7-3-1-4v-2l-4-1-15-1v-1l14-1v-2l-5-2-1-5 8-3 1-2z" fill="#D8C7A7"/>
<path transform="translate(1304,189)" d="m0 0h13l13 11 9 7 10 10 12 17 7 14v2h-19l-6-16-6-10-9-11-11-12-8-7z" fill="#9AB7B7"/>
<path transform="translate(1271,658)" d="m0 0h6l-3 2-3 1-1 4 3 4v2h2v2l5 2 8 5 10 5 12 3 10-1 3 2-13 5-12 4-2 2-9 3-4-1 1-3-3-2v-3h-2v-9l-3-1v-2l-4-1v-2h-4v-2l-9-1-3-1-11-1-8-3v-2l21-6z" fill="#CABEAC"/>
<path transform="translate(915,195)" d="m0 0 7 2 4 1 12 30v2h-44l2-5 12-20 2-5h2z" fill="#B8C894"/>
<path transform="translate(739,282)" d="m0 0h16v8l-3 5-4 2-2 11-1 2-14 2-13-1-2-1 1-21 3-5 3-1z" fill="#E0D1BA"/>
<path transform="translate(1389,549)" d="m0 0h13l2 2v7l-6 10-9 9-8 4-5 1h-10l-3-2-1-6 3-7 6-8 9-7z" fill="#DFD8CA"/>
<path transform="translate(873,356)" d="m0 0 7 1 46 12 43 11 1 1 11 2v2l36 9 5 2v1h-7l-36-9-13-3-10-3-6 1-3 3h-4l-1-2-4-2-7-1-10-4-19-5-12-3-11-2-5-5z" fill="#6B9474"/>
<path transform="translate(1110,121)" d="m0 0h14l11 5 24 7 32 8 25 6 27 8 23 8 29 12 14 6 6 1v1l-5 1h-12l-16-8-24-10-31-11-31-8-47-11-24-8-11-5z" fill="#99B6B6"/>
<path transform="translate(87,393)" d="m0 0h5l5 12 3 5 2 1-2 4-26 6h-11l-4-11-3-8v-3l10-2 19-3z" fill="#DBDBB4"/>
<path transform="translate(1522,311)" d="m0 0 7 6 12 12-23 1-13 1h-11l-16-12-4-4v-3l48 1z" fill="#D9C8A7"/>
<path transform="translate(1095,477)" d="m0 0h6v2l17 2 6 4-1 4-9 10-7 9-2-2-18-5-5-2-6-1 2-6 12-10z" fill="#D8C7A7"/>
<path transform="translate(987,278)" d="m0 0 4 2 6 2-1 4-3 5 7-1v6l-4 4h-2l-1 3-9 4-2 5h-3l-1 2-6 4-1 2h-2l-2 4-7 5h-3l-1 3-5 2-1 3-13-2v2l-5-1 3-3 3-1 3-3h2v-2l9-6h2v-2h2v-2l7-5h2l2-4 10-7 3-3 6-4 2-4-2-6 1-2-2-1v-2z" fill="#B7BCA1"/>
<path transform="translate(868,272)" d="m0 0h9l7 3 3 4v2h2v2l9-3 7-1-1 3-2 1 1 4 2 2-13 4h-7l5-5 2-3-11 6-13 8-4 2-8-1-1-5v-9l4-6h2v-6z" fill="#CABEAB"/>
<path transform="translate(636,520)" d="m0 0h11l18 2 7 3h5l4-2-6 7-8 8h-11l-15 1-10 4-9 3-1-3 6-11 4-5 4-4z" fill="#C8D794"/>
<path transform="translate(596,807)" d="m0 0h5l2 2 12 1 32 8 4 2-3 5-6 4-12-2-31-5-6-3v-6l-3 1-1 5h-4l-1-3 3-2 1-5h8z" fill="#B8C894"/>
<path transform="translate(553,464)" d="m0 0 1 2 6 1-2 6-6 8-10 6-5 1-13-5-12-8v-2l-7 1h-12v-1l50-8z" fill="#E0D2BA"/>
<path transform="translate(1342,143)" d="m0 0 9 2 2 3-10 6-5 6-3-1v-2l-3 1v9l6-2 1 17h-11l-12-5-8-4 4-2 6-2 2-5 2-9 1 2 4 1v-7l-3-1-1 3-3-3 1-4 6-2h8z" fill="#E1D2BB"/>
<path transform="translate(1141,34)" d="m0 0h2v2h-3v2l-17 4-49 7-21 6-5 2 2 15 5 10v2h-11l-7-3-6-8-1-8 5-5 11-7 18-6 25-4 14-1 1-1 26-4z" fill="#9AB7B7"/>
<path transform="translate(907,265)" d="m0 0h10l33 7v3l-13 10-10 7-2-1-2-6 1-2-11 1-2-2v-4l-9-2-6-3v-3l10-3z" fill="#949AA4"/>
<path transform="translate(1133,512)" d="m0 0 7 6 2 4-6-1-2-1-1 3-6 4-1 2h8l2 2-2 4 9 10 5 5 7 1 4 7v4l6 2 2 1v2l10 4-1 2-19-1-5-4-4-5v-2h-2l-1-5 2-2-1-1-9-1-9-7-5-5-3-2 2-4 9-2v-2l-13 1-3-2 5-3h3l2-7 5-5h3z" fill="#B7BDA1"/>
<path transform="translate(1342,649)" d="m0 0h1l1 7h2l2 3 8-1 11-1 8 1 7-5h4l-1 4-7 10-9 10-4 3-8 1-9-2-3-8-3-11z" fill="#765F6B"/>
<path transform="translate(736)" d="m0 0 15 2 21 7 21 6 16 5 31 10 7 2-2 1-4 1-2 3h-10l-10-2h-3l1-4-9-4-29-10-17-5-14-4-14-3-2-1v-2z" fill="#E6CF90"/>
<path transform="translate(870,166)" d="m0 0 10 1 5 3 5 6 1 3v9l-5 4-5 2-9-1-7-4-4-7v-9l4-5z" fill="#F9EBCF"/>
<path transform="translate(0)" d="m0 0h40l3 3 14 2 2-1v3l-13 1-4 1 2 1 1 3 11 2v1h-11l-40-3-5-1z" fill="#FEF0D5"/>
<path transform="translate(1496,439)" d="m0 0h43l5 5 8 7v2l-13 1-34-1-8-9z" fill="#B8BDA1"/>
<path transform="translate(859,350)" d="m0 0 14 5 2 7 4 3v2l15 2 16 4 11 3 9 3 1 2h7l5 3v2h3v2l-2 1-10-1-22-6-15-4-6-2-11-2-6-4-5-5-10-9-1-5z" fill="#949BA4"/>
<path transform="translate(1347,682)" d="m0 0 5 2 4 4-2 2 9 8 11 9 1 4-8-1-7-4-12-3-1-3-5 1-6-2 1 13v12h-2l-4-27-4-5 18-9 2 1z" fill="#CABEAC"/>
<path transform="translate(215,23)" d="m0 0h14l-3 5-9 6-6 5-6 7-10 8v1l4-2h4l1 3-5 4-5 5-5 2v-2h2v-2h-6v-2l-3-1 2-4 16-16 16-12-7 1-1-1h-11l-8 2-16 1v-4l-5 1 1-2 33-1z" fill="#DADBB1"/>
<path transform="translate(887,268)" d="m0 0h13l-1 2h-3v3l15 5 2 5 8-1 3 1 1 5 1 3-4 5-9 6-8-3 1-7 5-4 4-2-12 2-2-2 1-4 2-2-6 1-4 2h-5v-2h-2l-3-5-7-3 1-2 9-1z" fill="#B8BDA1"/>
<path transform="translate(247,30)" d="m0 0 4 1 5 5 2 3-32 16-13 6-10 4-10 7h-7l1-5 7-3 4-2 2-4 3-2h3l1-3 9-7 5-5h3l-8 11-2 2 1 2 6-4 4-3h8l4-3h2l1-3 8-5 1-2-5 1-9 7-3 3-2-1 5-5 9-8z" fill="#D7D8AC"/>
<path transform="translate(87,376)" d="m0 0h13l2 2-1 4h-2l-2 4-1 1 2 2-5 2-1-1-4 1-3-2v2l-4 1-10-2 1-2-16-1-1-3-2-1h4l1-4 4-1h11l1-1z" fill="#FDEFD4"/>
<path transform="translate(598,762)" d="m0 0h12l6 1 1 3 7 6-1 4-13-1-9 4-3 2-3 5-9 6-2-6v-8l4-1 6-4z" fill="#E0D2BB"/>
<path transform="translate(1073,177)" d="m0 0h18l16 4 11 6v1h-55l1-5 6-5z" fill="#D9C8A7"/>
<path transform="translate(1266,492)" d="m0 0 4 1-1 1 1 10h-2l-1 4-4 2-20 5-12 4-12 3-10 3v2l-5 2-7 1-7-6v-1h12l7-4h3v-2l3-1 11-1 9-3 7-1 6-3 7-2 8-3v-10z" fill="#6A9674"/>
<path transform="translate(1231,152)" d="m0 0 9 2 26 9 29 12 14 6 6 1v1l-5 1h-12l-16-8-24-10-31-11z" fill="#9BB7B5"/>
<path transform="translate(1104,124)" d="m0 0h8l18 7 11 3 5 5-1 2-17 1-7 2-16-16z" fill="#B8C894"/>
<path transform="translate(1206,336)" d="m0 0 11 1 18 5-5 5-10 9-5-1-9-5-5-5 1-4z" fill="#D9C8A7"/>
<path transform="translate(267,16)" d="m0 0h27l-4 3-3 1-29 3-6 4-5 2-6 1v-2l-7 1-3 1v-2l-2-1 1-5 7-2z" fill="#E4DCCD"/>
<path transform="translate(1055,84)" d="m0 0 19 9 24 11 12 6 9 4 6 2v1h-14l-22-11-24-11-13-6v-2l-2-1h5z" fill="#99B6B6"/>
<path transform="translate(812,259)" d="m0 0h9l3 5 2 9-8 1h-16l-4-11v-2l2-1z" fill="#C9BEAB"/>
<path transform="translate(859,241)" d="m0 0h1v6l-9 3-1 3 1 3 5 2 2 4 5 1 3 7-10 1-5-5-6-5-4-2-4-1-1-6 6-5 11-2 3-2h3z" fill="#CBBEAB"/>
<path transform="translate(275,25)" d="m0 0 6 1h5v3l-9 6v4l-3 1-14 2v2h-2l-1 2-8 3-11 5-8 1v-3l19-9 15-8 8-5h2z" fill="#E2DBC9"/>
<path transform="translate(1342,143)" d="m0 0 9 2 2 3-10 6-5 6-3-1v-2l-3 1-1 7-4-1-1-6 1-7-3-1-1 3-3-3 1-4 6-2h8z" fill="#E0D1BA"/>
<path transform="translate(1448,79)" d="m0 0h13l12 2 13 5v2l-12 2-11 2h-7l-8-2v-2h3l1-3-4-2z" fill="#CABEAC"/>
<path transform="translate(344,624)" d="m0 0h11l1 4-9 16-1 1-14-1-1-4 9-13z" fill="#B8C894"/>
<path transform="translate(1231,161)" d="m0 0 9 2 19 5 8 5 6 1v2l10 2 12 5v1h-22l-7-3-24-14-11-5z" fill="#BAC895"/>
<path transform="translate(239,30)" d="m0 0 1 2h5l-5 5-8 7v2l9-8 5-3 4 1-4 5-6 3-5 5-7 1-4 1-9 6-2-4 5-5 6-8 10-6z" fill="#DBDBB4"/>
<path transform="translate(1382,663)" d="m0 0 7 2 3 5v2l9 3 9 5 5 6v9l-4 3h-3v2h-10l-9 2-6 3h-5l4-2 2-4 9-3h12l4-2v-7l-2-4-5-3-10-3-4-4-1-6-6-1z" fill="#CABEAC"/>
<path transform="translate(1322,614)" d="m0 0h6l3 5v2h2l5 13v7l-17 3h-5l3-3 11-4h2l-3-7-3-4-5 1-2-3-4-7z" fill="#B7BDA2"/>
<path transform="translate(916,268)" d="m0 0 16 1 9 1 9 2v3l-5 4-7 1h-11l-10-4-3-4z" fill="#6C9475"/>
<path transform="translate(937,337)" d="m0 0 14 3 9 3-1 2 4 2-1 3-6 1-14-1-3 1-9-3-2-2 6-2 1-5z" fill="#B5BBA0"/>
<path transform="translate(1272,780)" d="m0 0 11 1 16 3 2 1v8h-12l-14-2v-2h-2z" fill="#B8C895"/>
<path transform="translate(636,520)" d="m0 0h11l-2 2-4 1v16l-10 4-9 3-1-3 6-11 4-5 4-4z" fill="#B9C895"/>
<path transform="translate(951,383)" d="m0 0 6 1 20 6-1-3 11 2 18 5v2l-9 2-11-1-20-6-14-5z" fill="#6B9575"/>
<path transform="translate(753,350)" d="m0 0h17l4 1v6l-4 4-6 2-8-1-7-4 1-4z" fill="#E1D2BB"/>
<path transform="translate(1597,1061)" d="m0 0h3v18h-18l1-9 4-4z" fill="#E2DACD"/>
<path transform="translate(29,382)" d="m0 0 1 2 3 1-2 3-4 2-8 1 3 3-6 3-3 1-1-2-4 2-4-1-1-6v-2l-1-2 4-1 9-1 3-1z" fill="#FEF0D5"/>
<path transform="translate(841,126)" d="m0 0h15l2 1v2h-2l-1 7 1 2-1 3h-17l-5-2-1-5 6 1 3 1v-2h-2v-2l-2-1h8l-3-3z" fill="#E0D1B9"/>
<path transform="translate(915,62)" d="m0 0h19l21 3 22 3 5 2 5 5-9 1-7 1-4-4-13-3-6-4-33-3z" fill="#DFD0B7"/>
<path transform="translate(777,260)" d="m0 0 9 1 4 5 1 5-2 4-10-1-5-1-4-3-1-7 2-2z" fill="#BEC898"/>
<path transform="translate(247,30)" d="m0 0 4 1 5 5 2 3-32 16-12 5-3-1 4-1v-2l6-4 4-3h8l4-3h2l1-3 8-5 1-2-5 1-9 7-3 3-2-1 5-5 9-8z" fill="#CED696"/>
<path transform="translate(920,282)" d="m0 0 4 1 1 5 1 3-4 5-9 6-8-3 1-7 5-4 4-2 2-3z" fill="#B6BCA2"/>
<path transform="translate(896,522)" d="m0 0 3 1-2 1-2 6 1 5 11 4h20l14-3 2-3h2v-2h2v-2h2l-2 4-8 8-10 1h-16l-11-2-14-3-1-3 2-8 3-3z" fill="#E1D2BB"/>
<path transform="translate(1383,579)" d="m0 0 3 1-1 3-8 3-1 1 5 1h8l3 3-7 2h-11l-8-4-4-5v-4l4 1h10z" fill="#765F6B"/>
<path transform="translate(738,49)" d="m0 0 25 1 3 1-2 4-5 3h-9l-10-3-9-2v-2z" fill="#DCD9B5"/>
<path transform="translate(890,236)" d="m0 0 8 3v-3h4l3 3 4 1-3 2-1 5-2 5-1 6h-1v-6h-2l-2-3-7-1-2-2 1-7z" fill="#E0D8CB"/>
<path transform="translate(215,23)" d="m0 0h14l-3 5h-5l-5-1-3 2-5-1h-11l-8 2-16 1v-4l-5 1 1-2 33-1z" fill="#E3DBCC"/>
<path transform="translate(664,771)" d="m0 0 9 1 1 3-6 17-9 22-4 8h-2v2l-6 2 3-5 5-2 1-4 6-14 3-9v-7l-1-9z" fill="#E1D2BB"/>
<path transform="translate(132,499)" d="m0 0 6 1-1 4h-2l-1 3v1l2 4 2 2h-9l-6-3-4-6-1-5z" fill="#CAD794"/>
<path transform="translate(943,392)" d="m0 0 4 1 17 5 9 3 14 3 18 5 1 2-9-1-8-2-15-3-13-3-15-5-3-3z" fill="#CABEAC"/>
<path transform="translate(1180,140)" d="m0 0 11 1 25 6 14 4v3h-7l-27-7-13-3v-2l-3-1z" fill="#99B3B4"/>
<path transform="translate(866,370)" d="m0 0 2 3 3 3 11 2 11 1 12 3 15 4-2 2h-9l-4-1-10-3-9-3h-11l-9-3-3-2 2-5z" fill="#CABEAC"/>
<path transform="translate(615,104)" d="m0 0 14 1v4l-15 2-9 4-4 3h-9v-2l13-8z" fill="#FDEFD4"/>
<path transform="translate(1215,79)" d="m0 0h5l-4 2-1 1 6 2v3h-15l-3-1v-2h-83v-1l81-1 6-2z" fill="#DDCFB2"/>
<path transform="translate(937,80)" d="m0 0h7l6 4 5 6v1l-21-1-5-6v-2l7-1z" fill="#D9C8A7"/>
<path transform="translate(835,247)" d="m0 0 2 1-2 4 1 7 3 2-1 3-6 2-1 2h-7v-7l2-1 1-11 5-1z" fill="#E1D2BB"/>
<path transform="translate(205,527)" d="m0 0 9 3h7l8 1 3 1v2l-7 5-6 1-19-10 3-2z" fill="#FDEFD4"/>
<path transform="translate(940,563)" d="m0 0 15 2 5 1-2 2-6-1-9 1-2 4-7 1 2 4-2 1h-12v-3l14-9z" fill="#E1D2BB"/>
<path transform="translate(951,379)" d="m0 0h7l16 4 3-1 4 2 3 2 33 8 5 2v1h-7l-36-9-13-3-10-3-5-2z" fill="#75686E"/>
<path transform="translate(1160,453)" d="m0 0 3 3 10 2v5l7 2v2l4 1v2l5 2 3 5 1 4 8 3-1 2-9-2-6-4-1-5-1-3-3-1-2-3-7-3-4-6-7-2z" fill="#C9BEAC"/>
<path transform="translate(877,357)" d="m0 0 11 2 27 7-1 3-17-1-12-3-7-5z" fill="#775C6B"/>
<path transform="translate(1222,241)" d="m0 0h11l5 3 1 5-4 2h-11l-4-1-2-5z" fill="#D9C8A7"/>
<path transform="translate(1133,512)" d="m0 0 7 6 2 4-6-1-2-1-1 3-6 4-1 2 3 1-11 1-3-2 5-3h3l2-7 5-5h3z" fill="#B3B99F"/>
<path transform="translate(1141,34)" d="m0 0h2v2h-3v2l-17 4-37 5h-10l3-2 10-2 14-1 1-1 26-4z" fill="#7894A9"/>
<path transform="translate(1347,682)" d="m0 0 5 2 4 4-2 2 8 9-2 1-10-6-9-3-2-1v-4l6-3 2 1z" fill="#B8BDA1"/>
<path transform="translate(133,499)" d="m0 0h9l3 2-1 6 2 7-1 1h-16v-1l7-1-2-2v-3h-2l1-2 4-2 1-4h-5z" fill="#DBDCB4"/>
<path transform="translate(1213,188)" d="m0 0h18l58 2-4 2-5 1h-20l-17-2-28-1z" fill="#DECFB4"/>
<path transform="translate(1152,528)" d="m0 0 4 2 15 12 3 3h-11l-6-4-6-5 1-4h2z" fill="#775C6B"/>
<path transform="translate(857,320)" d="m0 0 9 3 7 5-2 5-6 1-9-5-3-6z" fill="#C8BDAB"/>
<path transform="translate(1059,167)" d="m0 0h9v1l-5 1 5 7 5 1-3 2-5 4-2 5 4 1h-6l-2-1z" fill="#E0D1B9"/>
<path transform="translate(1403,650)" d="m0 0 7 1 9 5 1 5 2 4-4 1-18-13z" fill="#CABEAC"/>
<path transform="translate(620,545)" d="m0 0 2 4 3 1-12 17-5-1 4-10 5-9z" fill="#E1D2BB"/>
<path transform="translate(222,499)" d="m0 0 14 2 3 2-3 4v6l-4 2v-5l-9-3-2-2z" fill="#FEF0D5"/>
<path transform="translate(1496,439)" d="m0 0 22 1-1 4-4 1-2 3-7 1-7-5z" fill="#B9C796"/>
<path transform="translate(1095,477)" d="m0 0h6l-3 2v5l4 1-2 2-15 5h-6l5-5 6-5z" fill="#CABEAC"/>
<path transform="translate(1107,174)" d="m0 0h9l10 2 28 2 10 3 8 1 16 1v1h-24l-9-3-25-2-23-4z" fill="#DED0B6"/>
<path transform="translate(1109,92)" d="m0 0 7 6 5 5-2 4-6-1-10-5-1-2 5-3z" fill="#DBDAB4"/>
<path transform="translate(1541,441)" d="m0 0 5 5 6 5v2l-5-1-16-1-5-2 1-3 14-2z" fill="#CABEAC"/>
<path transform="translate(1060,191)" d="m0 0h9l12 2 6 2 1 3h-17l-7-1z" fill="#DAD3AE"/>
<path transform="translate(1199,511)" d="m0 0h8l-2 1-1 4-16 4-1 2-6-5 1-2z" fill="#6D8771"/>
<path transform="translate(1337,190)" d="m0 0 5 1 18 10 10 7 6 3 4 4-5-2-13-6-3-1v-2l-6-2-6-3-9-7z" fill="#DFCFB6"/>
<path transform="translate(1201,404)" d="m0 0 4 2-2 6h-2l-1 5-9-2-7-2 4-3h5l3-4z" fill="#B5BBA3"/>
<path transform="translate(0)" d="m0 0h28l2 5-5 1-2-3-15 1-5 3h-3z" fill="#E2DACD"/>
<path transform="translate(842,247)" d="m0 0h5v14l-6-2-4-1-1-6z" fill="#D9C8A7"/>
<path transform="translate(1278,122)" d="m0 0 16 1 2 1-1 5h-10l-9-2-2-3z" fill="#E2DACD"/>
<path transform="translate(670,93)" d="m0 0h9l4 3 4 2v1h-18l-9-1-1-3z" fill="#C6D694"/>
<path transform="translate(233,519)" d="m0 0 9 2 1 5-4 6-5-1-3-5z" fill="#DBDBB4"/>
<path transform="translate(333,302)" d="m0 0h10l6 2v2l-11 1h-22l-1-2 12-1z" fill="#E5D092"/>
<path transform="translate(771,199)" d="m0 0h7l1 3 4 1v4h-2v2h-7l-5-5v-3h2z" fill="#C8D794"/>
<path transform="translate(1114)" d="m0 0h8l5 5 7 2-1 4 3 3-1 3-8-6-13-10z" fill="#89A9B2"/>
<path transform="translate(875,169)" d="m0 0h9l3 4-3 3-6 1-10 2 1-5 5-1-1-3z" fill="#E2D9CA"/>
<path transform="translate(1331,690)" d="m0 0h3l3 22v12h-2l-4-27-4-5z" fill="#BCBDA4"/>
<path transform="translate(1599,1055)" d="m0 0h1v6l-15 7-3 11h-3l1-9 3-5 14-8z" fill="#97A9AE"/>
<path transform="translate(778,191)" d="m0 0 3 1h-2l-2 5-9 3h-4l-7-3 3-2z" fill="#DBDCB4"/>
<path transform="translate(577,805)" d="m0 0 8 1v9h-2v2l-5-1-3-3 1-7z" fill="#DBDBB4"/>
<path transform="translate(816,259)" d="m0 0h5l3 5 2 9h-8l1-3h-5l2-1 1-5z" fill="#B8C795"/>
<path transform="translate(644,768)" d="m0 0 13 1 5 1-6 11-3 1-1-7-1-4-7-2z" fill="#E1D2BB"/>
<path transform="translate(199,53)" d="m0 0h4l1 3-5 4-5 5-5 2v-2h2v-2l-4-2 8-6z" fill="#DBDCB4"/>
<path transform="translate(215,23)" d="m0 0h14l-3 5h-5l-5-1-3 2-5-1-6-1 1-2z" fill="#E2DACB"/>
<path transform="translate(1563,961)" d="m0 0 7 6 17 17 11 9 2 2-1 3-12-11-8-7-11-12-5-5z" fill="#96A7AC"/>
<path transform="translate(1110,438)" d="m0 0 8 3 14 4 7 3-3 1-12-1-5-2-8-3h-3z" fill="#CABEAC"/>
<path transform="translate(887,245)" d="m0 0 7 3 4 1 1 3h2v6l-4-1-10-6z" fill="#CABEAB"/>
<path transform="translate(863,185)" d="m0 0 19 4v2l3 1-4 2-9-1-7-4z" fill="#B9C896"/>
<path transform="translate(1190,596)" d="m0 0h3l1 3 6 3v2h2l5 5 5 4 3 2h-7l-4-5-7-4-3-3-6-4v-2z" fill="#CABEAC"/>
<path transform="translate(945,82)" d="m0 0 4 1 6 7v1l-21-1v-3l10-1z" fill="#BBC896"/>
<path transform="translate(1512,445)" d="m0 0 5 1v4l-1 2h5v1h-16l-5-5 1-2 3 2 7-1z" fill="#CABEAC"/>
<path transform="translate(1405,416)" d="m0 0h2l3 10 3 8 1 7 1 5-1 2h-2l-1-7-2-5-4-17z" fill="#CABEAC"/>
<path transform="translate(54,35)" d="m0 0h7v3l-9 3-1 1h-13l3-4z" fill="#E7D190"/>
<path transform="translate(246,35)" d="m0 0 4 1-4 5-6 3-5 5-7 1 5-5 8-7z" fill="#DBDCB4"/>
<path transform="translate(372,967)" d="m0 0 1 3-10 18-7 11-6 7v-3l13-21z" fill="#BDBDA4"/>
<path transform="translate(1058,457)" d="m0 0 12 2v1l-8 1-12 6-5 3v-3l9-9z" fill="#CABEAC"/>
<path transform="translate(133,519)" d="m0 0h19l7 2h6l2 2-25 1-6-2z" fill="#DBDBB4"/>
<path transform="translate(1189,709)" d="m0 0 4 4 1 7 1 9 2 3v4h-5z" fill="#E1D2BB"/>
<path transform="translate(988,302)" d="m0 0 3 2-7 3-2 5h-3l-1 2-6 4-1 2h-2l-2 4-7 5-3-1 2-2h3v-2l10-10 5-3 6-7z" fill="#CABEAC"/>
<path transform="translate(699,62)" d="m0 0 4 1 3 5v6l-4 1-4-5-2-3 1-4z" fill="#C6D594"/>
<path transform="translate(890,236)" d="m0 0 8 3v-3h4l3 3 4 1-3 2-1 4-7-4h-7l-2-1z" fill="#DECFB9"/>
<path transform="translate(222,43)" d="m0 0 6 2-2 4-9 7-3 1-1-5 4-2 4-6z" fill="#FEF0D5"/>
<path transform="translate(92,26)" d="m0 0h10l1 2-3 2-4 2-9 1-4-1 2-1v-2z" fill="#E5D290"/>
<path transform="translate(977,384)" d="m0 0h8l32 8v2l-9-1-31-8z" fill="#888C91"/>
<path transform="translate(174,414)" d="m0 0 3 1 7 9 4 5v5l-4-2-6-8z" fill="#E1D2BB"/>
<path transform="translate(959,595)" d="m0 0h9l5 1-3 6-6-1-6-2-4-2z" fill="#E1D2BB"/>
<path transform="translate(1077,426)" d="m0 0 4 2 2 4 10 1 5 2 8 3v1l-8-1-2-2h-14l-4 2z" fill="#CABEAC"/>
<path transform="translate(1416,214)" d="m0 0 7 2 2 2-1 4h-7l-6-4v-2z" fill="#E1D2BB"/>
<path transform="translate(1180,674)" d="m0 0 2 3v2h2l3 7 1 8 2 7v5l-2-1-6-21-2-6z" fill="#E1D2BB"/>
<path transform="translate(1237,121)" d="m0 0h17v4h-18v-3z" fill="#E2DACD"/>
<path transform="translate(226,27)" d="m0 0 2 1-12 9-11 11-10 8h-3l11-10 6-5 5-5 8-7z" fill="#CCCE91"/>
<path transform="translate(869,42)" d="m0 0 6 2 14 7 19 8-4 1-9-3-24-12z" fill="#DFD3B8"/>
<path transform="translate(679,523)" d="m0 0 2 1-14 14h-23v-1l10-1 4-1 5 1 5-3 5-5-1-2 6-2z" fill="#B8C796"/>
<path transform="translate(966,290)" d="m0 0 4 1v2h2l-1 4-6 4-3-1-1-3 3-4v-2z" fill="#6A9774"/>
<path transform="translate(1103,42)" d="m0 0h8l-2 2-23 3h-10l3-2 10-2z" fill="#6C8AA0"/>
<path transform="translate(1170,574)" d="m0 0 2 1 2 5 8 7 1 4h6v1h-7l-5-5-1-3-4-2-5-3v-4z" fill="#CABEAC"/>
<path transform="translate(1098,478)" d="m0 0 10 2 7 1-1 2-5 1h-11l-1-5z" fill="#E2DACD"/>
<path transform="translate(939,374)" d="m0 0 10 1 20 5 7 3-4 1-33-9z" fill="#85898D"/>
<path transform="translate(901,83)" d="m0 0 20 1 2 3-12 1-10-2z" fill="#E1D2BB"/>
<path transform="translate(209,496)" d="m0 0h9l16 4-3 1-9-2-1 3-6-1-3-2v-2z" fill="#DBD6B1"/>
<path transform="translate(190,35)" d="m0 0 2 1-13 12-9 5-3-2 7-5 5-2 8-7z" fill="#C1D094"/>
<path transform="translate(215,27)" d="m0 0 3 1-10 7-11 9-6 5v-3l10-9 9-7z" fill="#C0D094"/>
<path transform="translate(833,180)" d="m0 0h3v9l-9-4-5-1v-2z" fill="#C7D695"/>
<path transform="translate(917,332)" d="m0 0 6 2 1 2h-4v3l-7 1-4-2 2-3z" fill="#6A9774"/>
<path transform="translate(322,12)" d="m0 0h5l-2 1-1 4-5 1v1h-7l3-1v-2h-6v-1h5v-2z" fill="#E9E0CF"/>
<path transform="translate(193,494)" d="m0 0h7v7l-3 4-5-4z" fill="#FEF0D5"/>
<path transform="translate(294,37)" d="m0 0h9l-2 4h-16v-3z" fill="#B8C994"/>
<path transform="translate(1337,202)" d="m0 0 4 1 11 9-1 3-4-1-10-11z" fill="#E1D2BB"/>
<path transform="translate(1071,194)" d="m0 0h6l10 2 1 2h-17l-6-1 1-2z" fill="#D3C6A6"/>
<path transform="translate(225,49)" d="m0 0h3l1 5-15 6-3-1 4-1v-2l6-4z" fill="#CAD49C"/>
<path transform="translate(1130,108)" d="m0 0h13l1 2-9 4-4-1z" fill="#D9C8A7"/>
<path transform="translate(816,29)" d="m0 0 6 2 9 4h9l-1 2h-10l-10-2h-3l1-4z" fill="#D9C8A7"/>
<path transform="translate(621,823)" d="m0 0h10l4 2 8 2-1 2-12-2-9-2z" fill="#C7BDAA"/>
<path transform="translate(1215,424)" d="m0 0 10 3 6 4v2l-4 1-12-8z" fill="#CECABE"/>
<path transform="translate(1212,398)" d="m0 0 1 2-2 5-3 2v5l-7 1 2-2 1-5 3-5z" fill="#CABEAB"/>
<path transform="translate(1105,97)" d="m0 0 6 1 3 2-1 5-5-1-6-4z" fill="#E0D2BA"/>
<path transform="translate(132,499)" d="m0 0 6 1-1 4h-2l-1 3-3 1-3-4v-3l-2-1z" fill="#E9D18D"/>
<path transform="translate(1045,84)" d="m0 0h10v2h-5l1 3h-26l-1 3-2-3 1-1h26v-2z" fill="#DFD4BD"/>
<path transform="translate(1195,441)" d="m0 0 5 2 11 8 6 4-3 2-11-8v-2l-5-2-3-2z" fill="#775C6B"/>
<path transform="translate(1074,408)" d="m0 0h7l11 3 1 3h-3l-1 2-12-6z" fill="#8E949B"/>
<path transform="translate(935,272)" d="m0 0 7 2 2 4-3 2-4-1-4-4z" fill="#75616B"/>
<path transform="translate(1322,155)" d="m0 0 1 2 4 2v6l-4 2-2-3z" fill="#E1D5C3"/>
<path transform="translate(1122,534)" d="m0 0 2 1v2l8 7 2 4h2l1 3-4-2-5-4-5-5-3-2z" fill="#CABEAC"/>
<path transform="translate(1200,342)" d="m0 0 1 3 3 1 3 5-11-1 1-4z" fill="#E1D2BB"/>
<path transform="translate(857,287)" d="m0 0 2 1 1 6-1 4 3 3-6-1-1-5v-7z" fill="#D8C7A7"/>
<path transform="translate(683,61)" d="m0 0 5 1 2 2v3l-10 1-1-2 2-3h2z" fill="#C7D794"/>
<path transform="translate(1532,893)" d="m0 0h3l-10 20v1h-9v-1h7l3-9z" fill="#B7B9A3"/>
<path transform="translate(805,593)" d="m0 0 8 1 1 4h-12v-4z" fill="#E1D2BB"/>
<path transform="translate(586,804)" d="m0 0 13 2-3 4h-8l-2 1z" fill="#C9BEAB"/>
<path transform="translate(1215,149)" d="m0 0h8l8 3-1 2h-7l-8-4z" fill="#96A3AA"/>
<path transform="translate(620,545)" d="m0 0 2 4 3 1-5 5-4-4 1-4z" fill="#DBDBB4"/>
<path transform="translate(941,271)" d="m0 0 9 1v3l-5 4-2-1-1-3-5-2z" fill="#778F80"/>
<path transform="translate(238,28)" d="m0 0h3v2l-13 9-4 1 4-5z" fill="#BCCD94"/>
<path transform="translate(1126,525)" d="m0 0 2 1-2 3 3 1-11 1-3-2 5-3z" fill="#A5B9AD"/>
<path transform="translate(1131,132)" d="m0 0 10 2 5 5-1 2h-5l-1-4-7-3z" fill="#D8C7A7"/>
<path transform="translate(276,33)" d="m0 0 2 1-1 5-3 1-11 1 4-3z" fill="#DBDCB4"/>
<path transform="translate(661,805)" d="m0 0 1 2-7 15h-2v2l-6 2 3-5 5-2 1-4z" fill="#E0D3BA"/>
<path transform="translate(345,138)" d="m0 0h11l-3 3h-15l-7-1v-1z" fill="#E2DACD"/>
<path transform="translate(131,24)" d="m0 0 10 1v4l-13-1-2-2z" fill="#E2DACC"/>
<path transform="translate(880,184)" d="m0 0 4 1 3 4 2 1-4 2-3-1v-2l-4-1v-3z" fill="#E0D9BD"/>
<path transform="translate(177,490)" d="m0 0 12 2 3 2-14 1-1-3-2-1z" fill="#FEF0D5"/>
<path transform="translate(813,184)" d="m0 0h5l1 3h-3v5h-3l1-2-5-2v-3z" fill="#C7D694"/>
<path transform="translate(1145,103)" d="m0 0h4l-3 6-16-1-1 2v-3l14-1v-2z" fill="#DBDBB4"/>
<path transform="translate(222,40)" d="m0 0 2 1-4 5-10 8-3 3-2-1 5-5 6-5 5-5z" fill="#BECA93"/>
<path transform="translate(241,608)" d="m0 0 2 3-3 3-2 5-3 2-3-3 5-5h2z" fill="#FEF0D5"/>
<path transform="translate(1075,45)" d="m0 0 4 1v2l-13 3h-5l1-2 7-1v-2z" fill="#96A5AC"/>
<path transform="translate(1544,853)" d="m0 0h2l-2 5-5 9-3 1 2-6 2-4h2l1-4z" fill="#B7BDA1"/>
<path transform="translate(1599,1055)" d="m0 0h1v6l-9 3-3-2 9-5z" fill="#99B6B6"/>
<path transform="translate(191,66)" d="m0 0 2 1-3 1v2l6-3 2 1-5 4h-7l1-5z" fill="#CCD59F"/>
<path transform="translate(50,45)" d="m0 0h8l4 1v2l-3 2-6-1-3-2z" fill="#E2DACD"/>
<path transform="translate(1347,682)" d="m0 0 5 2 4 4-5 2-5-4z" fill="#C6BDA9"/>
<path transform="translate(1209,146)" d="m0 0 10 2-3 2 3 2-7-1-8-2v-1h5z" fill="#9AB7B7"/>
<path transform="translate(846,245)" d="m0 0 1 2-6 2-4 3v6l-2-1-1-7 3-3z" fill="#E2DACD"/>
<path transform="translate(951,379)" d="m0 0h7l10 3v3l-12-3-5-2z" fill="#736A6D"/>
<path transform="translate(778,191)" d="m0 0 3 1h-2l-2 5-9 3-2 1v-3l8-4z" fill="#D9C9A7"/>
<path transform="translate(416,110)" d="m0 0 4 1 2 6h-2l-1 3h-2l-1-6z" fill="#FEF0D5"/>
<path transform="translate(199,53)" d="m0 0h4l1 3-7 5-1-5z" fill="#FEF0D5"/>
<path transform="translate(68,32)" d="m0 0h7l-1 3-2 1h-9l1-3z" fill="#E8D18F"/>
<path transform="translate(800,260)" d="m0 0 1 4 4 6v3l-4-1-3-10z" fill="#B8C994"/>
<path transform="translate(1114)" d="m0 0 5 1 7 6 4 3h-4l-12-9z" fill="#92A1AA"/>
<path transform="translate(582,791)" d="m0 0 2 1v7l-4 4-3-1 4-7z" fill="#E1D2BB"/>
<path transform="translate(881,259)" d="m0 0 6 3v3l-8 1 1-5z" fill="#959CA6"/>
<path transform="translate(788,190)" d="m0 0 5 1-2 5-4 2v-6z" fill="#C9D895"/>
<path transform="translate(869,42)" d="m0 0 6 2 12 6-4 1-12-6z" fill="#DECFB4"/>
<path transform="translate(1521,891)" d="m0 0h2l-1 5-8 11v-3z" fill="#B4B7A3"/>
<path transform="translate(160,374)" d="m0 0 9 3 1 2-2 2-7-4z" fill="#FEF0D5"/>
<path transform="translate(820,279)" d="m0 0 4 2-2 9-2 5-1-2 1-4z" fill="#E1D2BB"/>
<path transform="translate(1231,152)" d="m0 0 6 1v3l-4 1-6-2z" fill="#99B1B3"/>
<path transform="translate(162,35)" d="m0 0 2 2 4 1 4-1-3 4-9-1h-2v-2z" fill="#C4D394"/>
<path transform="translate(215,27)" d="m0 0 3 1-10 7-4 1 4-5z" fill="#BECE94"/>
<path transform="translate(372,967)" d="m0 0 1 3-7 13-2-1 2-5z" fill="#C0BDA6"/>
<path transform="translate(958,379)" d="m0 0h7l11 4-4 1-14-4z" fill="#969EA3"/>
<path transform="translate(855,138)" d="m0 0 8 2-3 2h-2l-1 3-4-1z" fill="#F9EACC"/>
<path transform="translate(174,46)" d="m0 0 5 1-4 3-5 3-3-2z" fill="#C7D695"/>
<path transform="translate(185,31)" d="m0 0 3 1-6 3-8 6-2-1 5-5z" fill="#C3D394"/>
<path transform="translate(1580,1070)" d="m0 0h3l-1 9h-3z" fill="#98AEB1"/>
<path transform="translate(818,302)" d="m0 0h5l-2 3 4 3-7 1-1-3z" fill="#E1D2BB"/>
<path transform="translate(272,133)" d="m0 0h9l6 1-4 2-12-1z" fill="#E1D5C3"/>
<path transform="translate(1224,86)" d="m0 0 9 1 3 1v2h-7z" fill="#D9C8A7"/>
<path transform="translate(190,504)" d="m0 0 6 1 5 4-2 1-3-1-1 2-3-5z" fill="#FEF0D5"/>
<path transform="translate(1235,470)" d="m0 0 7 1v3h-8v-3z" fill="#8E949C"/>
<path transform="translate(1220,241)" d="m0 0v3 4l-1 3-4-1 1-5z" fill="#E1D2BB"/>
<path transform="translate(165,501)" d="m0 0 2 2-2 10-2 1 1-12z" fill="#E2DACD"/>
<path transform="translate(226,27)" d="m0 0 2 1-12 9-2-1 8-7z" fill="#BDCD94"/>
<path transform="translate(738)" d="m0 0h16l1 3-17-2z" fill="#FEF0D5"/>
<path transform="translate(1148,561)" d="m0 0 6 4 4 5 3 2-5-1-8-8z" fill="#CABEAC"/>
<path transform="translate(145,519)" d="m0 0h7l7 2v1h-9l-7-1z" fill="#E1D2BB"/>
<path transform="translate(198,505)" d="m0 0 10 3v2h-7v-2l-3-1z" fill="#ECE2D0"/>
<path transform="translate(1074,192)" d="m0 0 7 1 6 2v1h-8l-6-2z" fill="#DBDBB4"/>
</svg>
