<?xml version="1.0" encoding="iso-8859-1"?>
<!-- Uploaded to: SVG Repo, www.svgrepo.com, Generator: SVG Repo Mixer Tools -->
<svg fill="#000000" height="800px" width="800px" version="1.1" id="Capa_1" xmlns="http://www.w3.org/2000/svg" xmlns:xlink="http://www.w3.org/1999/xlink" 
	 viewBox="0 0 54 54" xml:space="preserve">
<g>
	<g>
		<path d="M22.5,11h-11c-0.553,0-1,0.448-1,1v5c0,0.552,0.447,1,1,1h11c0.553,0,1-0.448,1-1v-5C23.5,11.447,23.052,11,22.5,11z
			 M21.5,16h-9v-3h9V16z"/>
		<path d="M22.5,20h-11c-0.553,0-1,0.448-1,1v5c0,0.552,0.447,1,1,1h11c0.553,0,1-0.448,1-1v-5C23.5,20.447,23.052,20,22.5,20z
			 M21.5,25h-9v-3h9V25z"/>
		<path d="M22.5,29h-11c-0.553,0-1,0.448-1,1v5c0,0.552,0.447,1,1,1h11c0.553,0,1-0.448,1-1v-5C23.5,29.447,23.052,29,22.5,29z
			 M21.5,34h-9v-3h9V34z"/>
		<path d="M52.402,39.569l-4.772-10C47.463,29.221,47.113,29,46.727,29H31.5V1c0-0.319-0.152-0.619-0.41-0.807
			c-0.256-0.188-0.59-0.242-0.892-0.146l-22,7C7.782,7.179,7.5,7.564,7.5,8v11h-4v-3h-2v3v2h2h4v7h-4v-3h-2v3v2h2h4v7h-4v-3h-2v3v2
			h2h4v14c0,0.552,0.447,1,1,1h22h3h9h4c0.553,0,1-0.448,1-1V41h4c0.344,0,0.663-0.176,0.846-0.466
			C52.529,40.243,52.55,39.878,52.402,39.569z M9.5,39v-2v-7v-2v-7v-2V8.731l20-6.364V30v10v12h-20V39z M34.5,52v-7h7v7H34.5z
			 M45.5,52h-2v-8c0-0.552-0.447-1-1-1h-9c-0.553,0-1,0.448-1,1v8h-1V41h14V52z M46.5,39h-15v-8h14.597l3.818,8H46.5z"/>
	</g>
</g>
</svg>