<?xml version="1.0" encoding="iso-8859-1"?>
<!-- Uploaded to: SVG Repo, www.svgrepo.com, Generator: SVG Repo Mixer Tools -->
<svg fill="#000000" height="800px" width="800px" version="1.1" id="Layer_1" xmlns="http://www.w3.org/2000/svg" xmlns:xlink="http://www.w3.org/1999/xlink" 
	 viewBox="0 0 512 512" xml:space="preserve">
<g>
	<g>
		<g>
			<path d="M469.333,74.667H448c0-11.776-9.557-21.333-21.333-21.333s-21.333,9.557-21.333,21.333h-42.667
				c0-11.776-9.557-21.333-21.333-21.333c-11.776,0-21.333,9.557-21.333,21.333h-42.667c0-11.776-9.557-21.333-21.333-21.333
				c-11.776,0-21.333,9.557-21.333,21.333H192c0-11.776-9.557-21.333-21.333-21.333c-11.776,0-21.333,9.557-21.333,21.333h-42.667
				c0-11.776-9.557-21.333-21.333-21.333S64,62.891,64,74.667H42.667C19.136,74.667,0,93.803,0,117.333V160h512v-42.667
				C512,93.803,492.864,74.667,469.333,74.667z"/>
			<path d="M0,416c0,23.531,19.136,42.667,42.667,42.667h426.667C492.864,458.667,512,439.531,512,416V202.667H0V416z M384,224
				c11.776,0,21.333,9.557,21.333,21.333c0,11.776-9.557,21.333-21.333,21.333s-21.333-9.557-21.333-21.333
				C362.667,233.557,372.224,224,384,224z M384,288c11.776,0,21.333,9.557,21.333,21.333s-9.557,21.333-21.333,21.333
				s-21.333-9.557-21.333-21.333S372.224,288,384,288z M384,352c11.776,0,21.333,9.557,21.333,21.333s-9.557,21.333-21.333,21.333
				s-21.333-9.557-21.333-21.333S372.224,352,384,352z M298.667,224c11.776,0,21.333,9.557,21.333,21.333
				c0,11.776-9.557,21.333-21.333,21.333s-21.333-9.557-21.333-21.333C277.333,233.557,286.891,224,298.667,224z M298.667,288
				c11.776,0,21.333,9.557,21.333,21.333s-9.557,21.333-21.333,21.333s-21.333-9.557-21.333-21.333S286.891,288,298.667,288z
				 M298.667,352c11.776,0,21.333,9.557,21.333,21.333s-9.557,21.333-21.333,21.333s-21.333-9.557-21.333-21.333
				S286.891,352,298.667,352z M213.333,224c11.776,0,21.333,9.557,21.333,21.333c0,11.776-9.557,21.333-21.333,21.333
				S192,257.109,192,245.333C192,233.557,201.557,224,213.333,224z M213.333,288c11.776,0,21.333,9.557,21.333,21.333
				s-9.557,21.333-21.333,21.333S192,321.109,192,309.333S201.557,288,213.333,288z M213.333,352
				c11.776,0,21.333,9.557,21.333,21.333s-9.557,21.333-21.333,21.333S192,385.109,192,373.333S201.557,352,213.333,352z M128,224
				c11.776,0,21.333,9.557,21.333,21.333c0,11.776-9.557,21.333-21.333,21.333s-21.333-9.557-21.333-21.333
				C106.667,233.557,116.224,224,128,224z M128,288c11.776,0,21.333,9.557,21.333,21.333s-9.557,21.333-21.333,21.333
				s-21.333-9.557-21.333-21.333S116.224,288,128,288z M128,352c11.776,0,21.333,9.557,21.333,21.333s-9.557,21.333-21.333,21.333
				s-21.333-9.557-21.333-21.333S116.224,352,128,352z"/>
		</g>
	</g>
</g>
</svg>